# xmcd
#
# Track frame offsets:
#	150
#	16480
#	32232
#	47254
#	62544
#	75219
#	89035
#	102389
#	119365
#	130770
#	144645
#	160142
#	176430
#	195622
#	217022
#	243673
#
# Disc length: 3743 seconds
# Revision: 0
# Processed by: cddbd v1.5.2PL0 Copyright (c) Steve Scherf et al.
# Submitted via: dBpowerAMP V12.0
#
DISCID=d80e9d10
DTITLE=Teresa Cristina - A Vida Me Fez Assim
DYEAR=2005
DGENRE=Brazil
TTITLE0=Acalanto
TTITLE1=Viver
TTITLE2=Candeeiro
TTITLE3=O Passar dos Anos
TTITLE4=Já Era (Palavra)
TTITLE5=Peito Sangrando
TTITLE6=A Borboleta e o Passarinho
TTITLE7=Pedro e Tereza
TTITLE8=Um Calo de Estimação
TTITLE9=Sorri
TTITLE10=Quantas Lágrimas
TTITLE11=Lavoura
TTITLE12=Na Água do Rio - A Vida Me Fez Assim
TTITLE13=Embala Eu - Samba-de-Roda - Chora, Viola
TTITLE14=Portela
TTITLE15=DATA
EXTD=
EXTT0=
EXTT1=
EXTT2=
EXTT3=
EXTT4=
EXTT5=
EXTT6=
EXTT7=
EXTT8=
EXTT9=
EXTT10=
EXTT11=
EXTT12=
EXTT13=
EXTT14=
EXTT15=
PLAYORDER=
